HIERARCHY
ROOT SpineBase
{
  OFFSET 0.000000 0.000000 0.000000
  CHANNELS 6 Xposition Yposition Zposition Zrotation Xrotation Yrotation
  JOINT SpineMid
  {
    OFFSET 0.000000 30.548982 0.000000
    CHANNELS 3 Zrotation Xrotation Yrotation
    JOINT SpineShoulder
    {
      OFFSET 0.088107 22.600666 -0.704314
      CHANNELS 3 Zrotation Xrotation Yrotation
      JOINT Neck
      {
        OFFSET 0.064922 7.448065 -0.540839
        CHANNELS 3 Zrotation Xrotation Yrotation
        JOINT Head
        {
          OFFSET 6.056964 12.446382 3.574657
          CHANNELS 3 Zrotation Xrotation Yrotation
          End Site
          {
            OFFSET 0 0 0
          }
        }
      }
      JOINT ShoulderLeft
      {
        OFFSET -7.883824 -3.449121 -13.937088
        CHANNELS 3 Zrotation Xrotation Yrotation
        JOINT ElbowLeft
        {
          OFFSET 5.925522 -20.789069 -12.166921
          CHANNELS 3 Zrotation Xrotation Yrotation
          JOINT WristLeft
          {
            OFFSET 25.230863 -7.750207 -2.788762
            CHANNELS 3 Zrotation Xrotation Yrotation
            JOINT HandLeft
            {
              OFFSET 9.722005 -0.026225 0.111771
              CHANNELS 3 Zrotation Xrotation Yrotation
              JOINT HandTipLeft
              {
                OFFSET 6.517691 -1.861746 -1.818915
                CHANNELS 3 Zrotation Xrotation Yrotation
                End Site
                {
                  OFFSET 0 0 0
                }
              }
              JOINT ThumbLeft
              {
                OFFSET 5.822552 -4.842112 -4.405608
                CHANNELS 3 Zrotation Xrotation Yrotation
                End Site
                {
                  OFFSET 0 0 0
                }
              }
            }
          }
        }
      }
      JOINT ShoulderRight
      {
        OFFSET 10.804791 -3.237033 11.295327
        CHANNELS 3 Zrotation Xrotation Yrotation
        JOINT ElbowRight
        {
          OFFSET 10.208416 -19.142603 -11.553292
          CHANNELS 3 Zrotation Xrotation Yrotation
          JOINT WristRight
          {
            OFFSET 10.176103 -14.949372 -11.480735
            CHANNELS 3 Zrotation Xrotation Yrotation
            JOINT HandRight
            {
              OFFSET 4.875487 -2.978375 -11.091973
              CHANNELS 3 Zrotation Xrotation Yrotation
              JOINT HandTipRight
              {
                OFFSET 2.146371 -1.220560 -2.244004
                CHANNELS 3 Zrotation Xrotation Yrotation
                End Site
                {
                  OFFSET 0 0 0
                }
              }
              JOINT ThumbRight
              {
                OFFSET -1.494349 -2.248619 -1.996453
                CHANNELS 3 Zrotation Xrotation Yrotation
                End Site
                {
                  OFFSET 0 0 0
                }
              }
            }
          }
        }
      }
    }
  }
  JOINT HipLeft
  {
    OFFSET -3.765498 1.537850 -9.168589
    CHANNELS 3 Zrotation Xrotation Yrotation
    JOINT KneeLeft
    {
      OFFSET -10.445955 -39.412000 -1.822090
      CHANNELS 3 Zrotation Xrotation Yrotation
      JOINT AnkleLeft
      {
        OFFSET -10.158268 -35.959604 5.546948
        CHANNELS 3 Zrotation Xrotation Yrotation
        JOINT FootLeft
        {
          OFFSET 0.510095 -8.099169 -5.645396
          CHANNELS 3 Zrotation Xrotation Yrotation
          End Site
          {
            OFFSET 0 0 0
          }
        }
      }
    }
  }
  JOINT HipRight
  {
    OFFSET 4.595766 -0.340566 2.081917
    CHANNELS 3 Zrotation Xrotation Yrotation
    JOINT KneeRight
    {
      OFFSET -1.168616 -37.919551 4.624212
      CHANNELS 3 Zrotation Xrotation Yrotation
      JOINT AnkleRight
      {
        OFFSET -4.157748 -35.810264 15.824208
        CHANNELS 3 Zrotation Xrotation Yrotation
        JOINT FootRight
        {
          OFFSET 8.199755 -4.599030 -9.125818
          CHANNELS 3 Zrotation Xrotation Yrotation
          End Site
          {
            OFFSET 0 0 0
          }
        }
      }
    }
  }
}
MOTION
Frames: 9
Frame Time: 0.033333
-40.327094 84.821475 341.749732 -0.000000 0.000000 -53.380633 0.000000 0.000000 53.380633 -0.000000 0.000000 0.000000 -0.000000 0.000000 0.000000 0.000000 0.000000 0.000000 -0.000000 0.000000 0.000000 -0.000000 0.000000 0.000000 -0.000000 0.000000 0.000000 -0.000000 0.000000 0.000000 0.000000 0.000000 0.000000 0.000000 0.000000 0.000000 -0.000000 0.000000 0.000000 -0.000000 0.000000 0.000000 -0.000000 0.000000 0.000000 -0.000000 0.000000 0.000000 0.000000 0.000000 0.000000 0.000000 0.000000 0.000000 0.000000 0.000000 53.380633 -0.000000 0.000000 0.000000 -0.000000 0.000000 0.000000 0.000000 0.000000 0.000000 0.000000 0.000000 53.380633 -0.000000 0.000000 0.000000 -0.000000 0.000000 0.000000 0.000000 0.000000 0.000000
-40.195330 84.795421 341.934599 0.088219 -0.072126 -53.631206 -0.110389 -0.028266 53.631235 -0.000000 0.000000 0.000000 -0.000000 0.000000 0.000000 0.000000 0.000000 0.000000 7.358668 -1.086185 -4.492634 -10.487252 0.341139 6.143700 -1.485502 -0.160127 2.878248 -3.260646 -1.752252 -4.428070 0.000000 0.000000 0.000000 0.000000 0.000000 0.000000 -0.000000 0.000000 0.000000 2.691971 8.726739 3.422283 -1.940870 -4.832509 -1.693530 -3.818145 -7.644435 -5.087331 0.000000 0.000000 0.000000 0.000000 0.000000 0.000000 -0.110389 -0.028266 53.631235 -0.000000 0.000000 0.000000 13.339473 7.897473 -9.233662 0.000000 0.000000 0.000000 -0.110389 -0.028266 53.631235 -0.000000 0.000000 0.000000 -6.900103 -8.211205 -1.936429 0.000000 0.000000 0.000000
-40.080071 84.773187 342.091940 0.147912 -0.154786 -53.857000 -0.212235 -0.028153 53.857148 -0.000000 0.000000 0.000000 -0.000000 0.000000 0.000000 0.000000 0.000000 0.000000 13.248444 -2.424148 -8.018441 -19.126620 -0.233199 11.204716 -3.141971 -0.474131 5.671170 -4.344078 -2.363468 -8.719241 0.000000 0.000000 0.000000 0.000000 0.000000 0.000000 -0.625905 -1.429146 -0.396360 5.119146 17.479538 6.274805 -3.616333 -8.689492 -3.442724 -7.183230 -13.219935 -9.080788 0.000000 0.000000 0.000000 0.000000 0.000000 0.000000 -0.212235 -0.028153 53.857148 -0.000000 0.000000 0.000000 24.210356 12.198755 -17.317594 0.000000 0.000000 0.000000 -0.212235 -0.028153 53.857148 -0.000000 0.000000 0.000000 -15.175243 -16.956666 -5.227029 0.000000 0.000000 0.000000
-39.981316 84.754774 342.221756 0.179141 -0.247971 -54.057880 -0.305910 0.000516 54.058269 -0.000000 0.000000 0.000000 -0.000000 0.000000 0.000000 0.000000 0.000000 0.000000 17.505728 -3.683424 -10.514795 -25.578698 -1.152320 14.935634 -4.726338 -0.872409 8.091706 -4.165285 -2.464618 -12.404955 0.000000 0.000000 0.000000 0.000000 0.000000 0.000000 -1.270110 -2.907684 -0.834292 6.932452 24.813853 8.427714 -5.063746 -12.031877 -5.439693 -9.808415 -16.940188 -11.672674 0.000000 0.000000 0.000000 0.000000 0.000000 0.000000 -0.305910 0.000516 54.058269 -0.000000 0.000000 0.000000 31.918492 14.172801 -23.230032 0.000000 0.000000 0.000000 -0.305910 0.000516 54.058269 -0.000000 0.000000 0.000000 -24.022466 -24.746217 -9.632855 0.000000 0.000000 0.000000
-39.899065 84.740180 342.324046 0.181961 -0.351678 -54.233712 -0.391707 0.057902 54.234468 -0.000000 0.000000 0.000000 0.727475 -0.369580 -0.026844 0.000000 0.000000 0.000000 20.175738 -4.650908 -12.059173 -29.801370 -1.951083 17.342807 -6.041825 -1.250595 9.920586 -3.411336 -2.421457 -15.194826 0.000000 0.000000 0.000000 0.000000 0.000000 0.000000 -2.163110 -4.915259 -1.462542 8.512779 31.385861 10.130489 -6.460416 -15.408927 -7.953862 -11.408349 -18.908373 -12.538319 0.000000 0.000000 0.000000 0.000000 0.000000 0.000000 -0.391707 0.057902 54.234468 -0.000000 0.000000 0.000000 36.975462 14.999565 -27.157652 0.000000 0.000000 0.000000 -0.391707 0.057902 54.234468 -0.000000 0.000000 0.000000 -31.998743 -30.419418 -14.099631 0.000000 0.000000 0.000000
-39.833319 84.729408 342.398811 0.156418 -0.465905 -54.384365 -0.469844 0.144155 54.385592 -0.000000 0.000000 0.000000 0.772247 -0.431269 -0.009053 0.000000 0.000000 0.000000 21.356245 -5.221399 -12.750372 -31.856972 -2.336187 18.513102 -6.971538 -1.509057 11.034349 -2.514070 -2.403908 -16.927006 0.000000 0.000000 0.000000 0.000000 0.000000 0.000000 -3.337284 -7.465498 -2.316824 10.005617 37.441047 11.485524 -8.070001 -19.241818 -11.241557 -11.831890 -19.176905 -11.508294 0.000000 0.000000 0.000000 0.000000 0.000000 0.000000 -0.469844 0.144155 54.385592 -0.000000 0.000000 0.000000 40.039254 15.309334 -29.547136 0.000000 0.000000 0.000000 -0.469844 0.144155 54.385592 -0.745835 0.389630 -0.372561 -36.866829 -34.303723 -17.209398 0.000000 0.000000 0.000000
-39.801441 84.718774 342.414955 0.099836 -0.571620 -54.550031 -0.523562 0.250201 54.551672 -0.124387 -0.837138 -0.002643 0.124362 0.837142 0.000825 0.000000 0.000000 0.000000 21.335359 -4.550225 -13.010712 -31.879383 -2.257312 18.463702 -7.029779 -1.603647 11.776902 -2.363948 -2.392907 -18.490148 0.000000 0.000000 0.000000 0.000000 0.000000 0.000000 -2.867882 -5.546602 -1.808469 9.438479 36.166312 11.561952 -14.682918 -30.135527 -21.644346 -6.538681 -8.052094 -1.825072 0.000000 0.000000 0.000000 0.000000 0.000000 0.000000 -0.523562 0.250201 54.551672 -0.000000 0.000000 0.000000 40.668548 15.209862 -30.023536 0.000000 0.000000 0.000000 -0.523562 0.250201 54.551672 -0.841154 0.469397 -0.423162 -36.874814 -34.519863 -16.453269 0.000000 0.000000 0.000000
-39.784695 84.733186 342.403848 -0.003004 -0.684004 -54.666162 0.077707 -0.289827 54.664984 -0.076093 -0.183700 -0.007399 0.270454 1.098752 0.007473 0.000000 0.000000 0.000000 18.103355 -3.448613 -11.172035 -27.160592 -0.984113 15.791726 -6.928311 -1.231844 10.292103 -1.408841 -2.822692 -17.741239 0.000000 0.000000 0.000000 0.000000 0.000000 0.000000 -5.250108 -10.521732 -3.642404 11.916225 44.651753 12.913881 -20.827995 -36.735714 -30.482666 -4.913473 -4.119638 0.767864 0.000000 0.000000 0.000000 0.000000 0.000000 0.000000 -0.556280 0.398031 54.668076 -0.000000 0.000000 0.000000 38.360160 14.812410 -28.204471 0.000000 0.000000 0.000000 -0.556280 0.398031 54.668076 -0.940641 0.518218 -0.472074 -30.354039 -30.736967 -11.515661 0.000000 0.000000 0.000000
-39.752197 84.731441 342.423767 -0.122541 -0.865524 -54.698131 0.155272 -0.406498 54.692622 -0.079395 -0.226668 -0.013003 0.443584 1.453947 0.013921 0.000000 0.000000 0.000000 15.257815 -2.620926 -9.542750 -23.101968 0.083669 13.535535 -6.833076 -0.963844 9.086441 0.405113 -3.033802 -16.583515 0.000000 0.000000 0.000000 0.000000 0.000000 0.000000 -8.390320 -16.550351 -6.343910 14.639188 53.570138 13.874804 -20.946451 -37.081281 -31.232772 -4.976014 -5.489678 -0.087532 0.000000 0.000000 0.000000 0.000000 0.000000 0.000000 -0.635576 0.600171 54.700534 -0.000000 0.000000 0.000000 38.316325 14.789674 -28.168627 0.000000 0.000000 0.000000 -0.635576 0.600171 54.700534 -0.974403 0.543655 -0.489628 -28.856113 -29.761580 -9.869285 0.000000 0.000000 0.000000
